<svg width="500" height="210" viewBox="0 0 500 210" fill="none" xmlns="http://www.w3.org/2000/svg">
<path d="M325.867 155.733V125.452V124.01H294.144L325.867 155.733Z" fill="#FF1D25"/>
<path d="M31.7235 177.363L1.44197 177.363L-1.38668e-06 177.363L0 209.086L31.7235 177.363Z" fill="#581313"/>
<rect x="168.691" width="157.175" height="124.01" fill="#F99795"/>
<rect y="53.3531" width="157.175" height="124.01" fill="#741B17"/>
<path d="M224.928 47.7853V50.8574H235.52V48.2508C235.52 41.0825 241.138 37.4518 248.414 37.4518C255.414 37.4518 260.388 41.0825 260.388 46.9475C260.388 52.3469 257.256 54.6743 251.362 57.281L249.427 58.1188C243.625 60.6324 241.783 64.4492 241.783 70.5004V74.5035H252.375V71.152C252.375 68.3592 253.112 67.0559 255.414 66.0318L257.44 65.194C264.256 62.215 271.071 57.5602 271.071 46.8544V46.3889C271.071 35.2175 261.493 27.3976 248.414 27.3976C235.152 27.3976 224.928 35.0313 224.928 47.7853ZM239.112 87.0712C239.112 91.8191 242.52 95.1705 247.033 95.1705C251.638 95.1705 255.046 91.8191 255.046 87.0712C255.046 82.4165 251.638 79.0651 247.033 79.0651C242.52 79.0651 239.112 82.4165 239.112 87.0712Z" fill="#581313"/>
<path d="M374.548 162.101L344.266 162.101L342.824 162.101L342.824 193.825L374.548 162.101Z" fill="#F82031"/>
<rect x="342.824" y="38.0917" width="157.175" height="124.01" fill="#F83843"/>
<path d="M391.8 99.6764C391.8 103.927 394.88 106.928 399.043 106.928C403.123 106.928 406.203 103.927 406.203 99.6764C406.203 95.5088 403.123 92.5082 399.043 92.5082C394.88 92.5082 391.8 95.5088 391.8 99.6764Z" fill="white"/>
<path d="M414.159 99.6764C414.159 103.927 417.239 106.928 421.402 106.928C425.481 106.928 428.562 103.927 428.562 99.6764C428.562 95.5088 425.481 92.5082 421.402 92.5082C417.239 92.5082 414.159 95.5088 414.159 99.6764Z" fill="white"/>
<path d="M436.517 99.6764C436.517 103.927 439.598 106.928 443.761 106.928C447.84 106.928 450.921 103.927 450.921 99.6764C450.921 95.5088 447.84 92.5082 443.761 92.5082C439.598 92.5082 436.517 95.5088 436.517 99.6764Z" fill="white"/>
<path d="M57.1372 102.013V105.085H67.729V102.478C67.729 95.3098 73.3472 91.6791 80.6233 91.6791C87.6231 91.6791 92.5966 95.3098 92.5966 101.175C92.5966 106.574 89.4651 108.902 83.5706 111.508L81.6364 112.346C75.834 114.86 73.9919 118.677 73.9919 124.728V128.731H84.5837V125.379C84.5837 122.587 85.3205 121.283 87.6231 120.259L89.6493 119.421C96.4649 116.442 103.28 111.788 103.28 101.082V100.616C103.28 89.4448 93.7018 81.6249 80.6233 81.6249C67.3606 81.6249 57.1372 89.2586 57.1372 102.013ZM71.321 141.299C71.321 146.046 74.7287 149.398 79.2418 149.398C83.8469 149.398 87.2546 146.046 87.2546 141.299C87.2546 136.644 83.8469 133.292 79.2418 133.292C74.7287 133.292 71.321 136.644 71.321 141.299Z" fill="#FF363B"/>
</svg>
