<svg width="500" height="276" viewBox="0 0 500 276" fill="none" xmlns="http://www.w3.org/2000/svg">
<path d="M500 275.561C500 208.075 445.292 153.367 377.806 153.367V275.561H500Z" fill="#711B1B"/>
<path d="M-0.000173188 275.561L116.64 275.561L122.194 275.561L122.194 153.367L-0.000173188 275.561Z" fill="#FF1D25"/>
<rect x="190.773" width="275.561" height="68.5785" transform="rotate(90 190.773 0)" fill="#F99795"/>
<rect x="259.352" width="275.561" height="68.5785" transform="rotate(90 259.352 0)" fill="#561416"/>
<rect x="325.593" y="61.0973" width="203.787" height="68.5785" transform="rotate(75 325.593 61.0973)" fill="#F83843"/>
<path d="M309.931 82.5028L306.106 83.6265L308.449 91.6058L286.77 97.9734L288.001 102.163L309.68 95.7958L312.024 103.775L315.849 102.651L309.931 82.5028Z" fill="#561416"/>
<path d="M309.17 107.803L308.025 103.904L290.062 109.18L291.229 113.152L301.758 110.059C304.455 109.267 306.269 110.594 306.976 112.999L307.789 115.768L311.287 114.741L310.72 112.809C310.035 110.478 308.914 109.224 306.806 109.051L306.656 108.541L309.17 107.803Z" fill="#561416"/>
<path d="M317.063 114.868C315.387 115.36 314.596 116.978 315.088 118.654C315.58 120.33 317.121 121.263 318.797 120.771C320.509 120.268 321.301 118.65 320.808 116.974C320.316 115.298 318.776 114.365 317.063 114.868ZM313.163 121.397L311.996 117.425L294.034 122.701L295.2 126.673L313.163 121.397Z" fill="#561416"/>
<path d="M322.036 123.714L296.531 131.205L297.677 135.104L300.409 134.301L300.559 134.811C299.208 136.276 298.097 138.423 299.093 141.812C300.441 146.403 305.479 149 311.053 147.362C316.591 145.736 319.424 140.827 318.075 136.236C317.08 132.848 314.985 131.642 313.093 131.13L312.964 130.692L323.202 127.685L322.036 123.714ZM314.194 136.228C315.093 139.289 313.629 142.252 309.876 143.354C306.123 144.457 303.252 142.767 302.353 139.706C301.433 136.573 303.017 133.614 306.697 132.533C310.377 131.452 313.274 133.095 314.194 136.228Z" fill="#561416"/>
<path d="M308.083 170.532L326.045 165.256L324.879 161.285L315.661 163.992C312.09 165.041 309.577 163.761 308.656 160.627C307.843 157.858 308.892 155.769 311.734 154.935L322.118 151.884L320.951 147.913L310.166 151.081C305.43 152.472 303.596 156.335 304.763 160.307C305.758 163.695 307.828 164.947 309.812 165.235L309.962 165.745L306.938 166.634L308.083 170.532Z" fill="#561416"/>
<path d="M318.075 171.268C312.427 172.927 309.743 178.069 311.316 183.425C312.878 188.745 317.918 191.618 323.565 189.959C329.176 188.311 331.861 183.169 330.298 177.849C328.725 172.494 323.686 169.62 318.075 171.268ZM319.252 175.276C322.75 174.249 325.775 175.656 326.728 178.898C327.67 182.105 325.922 184.913 322.388 185.952C318.854 186.99 315.828 185.583 314.886 182.376C313.934 179.134 315.681 176.325 319.252 175.276Z" fill="#561416"/>
<path d="M317.958 194.316C316.1 194.861 315.184 196.595 315.719 198.417C316.243 200.202 317.951 201.165 319.809 200.619C321.631 200.084 322.547 198.35 322.022 196.565C321.487 194.743 319.78 193.781 317.958 194.316Z" fill="#561416"/>
<path d="M326.875 201.228C321.227 202.886 318.542 208.029 320.116 213.385C321.678 218.704 326.717 221.578 332.365 219.919C337.976 218.271 340.661 213.128 339.098 207.809C337.525 202.453 332.486 199.579 326.875 201.228ZM328.052 205.235C331.55 204.208 334.575 205.615 335.528 208.858C336.469 212.064 334.722 214.873 331.188 215.911C327.653 216.949 324.628 215.542 323.686 212.336C322.734 209.093 324.481 206.284 328.052 205.235Z" fill="#561416"/>
<path d="M343.47 224.58L342.325 220.682L324.363 225.958L325.529 229.929L336.059 226.836C338.755 226.044 340.57 227.371 341.276 229.776L342.089 232.545L345.587 231.518L345.02 229.587C344.335 227.255 343.215 226.001 341.106 225.829L340.956 225.319L343.47 224.58Z" fill="#561416"/>
<path d="M350.154 247.334L347.458 248.126L347.308 247.616C348.622 246.162 349.733 244.015 348.738 240.626C347.389 236.035 342.498 233.396 337.069 234.99C331.64 236.585 328.917 241.461 330.265 246.052C331.26 249.441 333.392 250.635 335.284 251.148L335.413 251.585L333.008 252.291C329.51 253.319 327.16 251.516 326.25 248.419C325.394 245.504 326.597 243.132 328.239 241.581L325.157 238.766C322.886 241.412 321.43 244.808 322.864 249.69C324.512 255.302 329.037 257.772 333.992 256.316L351.299 251.233L350.154 247.334ZM334.146 246.06C333.247 242.999 334.602 240.068 338.246 238.998C341.853 237.939 344.578 239.671 345.477 242.732C346.398 245.865 344.959 248.781 341.424 249.819C337.854 250.868 335.066 249.193 334.146 246.06Z" fill="#561416"/>
<path fill-rule="evenodd" clip-rule="evenodd" d="M140.898 0V32.4286L173.327 0H140.898Z" fill="#FF1D25"/>
<path fill-rule="evenodd" clip-rule="evenodd" d="M140.898 0L173.327 32.4286V0H140.898Z" fill="#561416"/>
<path d="M249.376 250.623V205.99V203.864H202.617L249.376 250.623Z" fill="#F82031"/>
<path d="M225.997 227.244L203.68 227.244L202.617 227.244L202.617 250.623L225.997 227.244Z" fill="#F82031"/>
</svg>
