<?xml version="1.0" encoding="UTF-8"?>
<svg width="136px" height="48px" viewBox="0 0 136 48" version="1.1" xmlns="http://www.w3.org/2000/svg" xmlns:xlink="http://www.w3.org/1999/xlink">
    <title>Onyx_main_logo</title>
    <g id="Symbols" stroke="none" stroke-width="1" fill="none" fill-rule="evenodd">
        <g id="Website/Integrations/02-White" transform="translate(-372.000000, -173.000000)" fill-rule="nonzero">
            <g id="Onyx_main_logo">
                <g transform="translate(372.000000, 173.000000)">
                    <g id="Group" transform="translate(59.798658, 2.599664)">
                        <g id="Onnx" fill="#FAFAFA">
                            <path d="M0.0819221391,14.64189 L0.0819221391,5.8530319 C0.0819221391,1.61377338 3.25024099,0.0310341034 7.40480694,0.0310341034 C11.5223886,0.0310341034 14.764676,1.61377338 14.764676,5.8530319 L14.764676,14.64189 C14.764676,18.8811485 11.5223886,20.4638878 7.40480694,20.4638878 C3.25640503,20.4638878 0.0819221391,18.8873553 0.0819221391,14.64189 Z M12.9462829,5.8530319 C12.9462829,2.77444884 10.8689999,1.35929373 7.40480694,1.35929373 C3.94061396,1.35929373 1.90031525,2.77444884 1.90031525,5.8530319 L1.90031525,14.64189 C1.90031525,17.720473 3.94061396,19.1356282 7.40480694,19.1356282 C10.8689999,19.1356282 12.9462829,17.720473 12.9462829,14.64189 L12.9462829,5.8530319 Z" id="Shape"></path>
                            <path d="M32.8129982,19.2721782 L22.0937249,3.3020286 L22.0937249,19.6880352 C22.0937249,20.1038922 21.6560777,20.2963549 21.1814463,20.2963549 C20.7437991,20.2963549 20.2691677,20.1038922 20.2691677,19.6880352 L20.2691677,0.614475247 C20.2691677,0.173790979 20.7068149,0.0310341034 21.1814463,0.0310341034 C21.834835,0.0310341034 22.3464507,0.695163916 22.673145,1.16688229 L33.207497,17.0004818 L33.207497,0.614475247 C33.207497,0.198618262 33.6821284,0.0310341034 34.1197756,0.0310341034 C34.594407,0.0310341034 35.0320542,0.198618262 35.0320542,0.614475247 L35.0320542,19.6880352 C35.0320542,20.1038922 34.594407,20.2963549 34.1197756,20.2963549 C33.5773397,20.3025104 33.1396925,19.7438966 32.8129982,19.2721782 Z" id="Path"></path>
                            <path d="M53.3269381,19.2721782 L42.6138288,3.3020286 L42.6138288,19.6880352 C42.6138288,20.1038922 42.1761817,20.2963549 41.7015503,20.2963549 C41.2639031,20.2963549 40.7892717,20.1038922 40.7892717,19.6880352 L40.7892717,0.614475247 C40.7892717,0.173790979 41.2269188,0.0310341034 41.7015503,0.0310341034 C42.354939,0.0310341034 42.8665547,0.695163916 43.193249,1.16688229 L53.727601,17.0004818 L53.727601,0.614475247 C53.727601,0.198618262 54.2022324,0.0310341034 54.6398796,0.0310341034 C55.114511,0.0310341034 55.5521581,0.198618262 55.5521581,0.614475247 L55.5521581,19.6880352 C55.5521581,20.1038922 55.114511,20.2963549 54.6398796,20.2963549 C54.0912796,20.3025104 53.6536324,19.7438966 53.3269381,19.2721782 Z" id="Path"></path>
                            <path d="M66.8878359,11.457791 L61.494297,19.3901078 C61.2415712,19.7811375 60.945697,20.3335445 60.4032611,20.3335445 C59.9286297,20.3335445 59.3800297,20.0294103 59.3800297,19.6383806 C59.3800297,19.5266579 59.4539983,19.4149351 59.5279668,19.278385 L65.7968,10.1543586 L59.6389196,1.11722772 C59.4909825,0.924816281 59.417014,0.757232123 59.417014,0.589647965 C59.417014,0.229652365 59.8546612,0.00620682068 60.4402454,0.00620682068 C60.9518611,0.00620682068 61.3155397,0.533786578 61.6052498,0.974470847 L66.8878359,8.81989219 L72.2074062,0.974470847 C72.4971163,0.589647965 72.8299747,0.00620682068 73.3724106,0.00620682068 C73.9579949,0.00620682068 74.395642,0.229652365 74.395642,0.589647965 C74.395642,0.757232123 74.3216735,0.924816281 74.1737364,1.11722772 L67.9788717,10.1543586 L74.2846892,19.278385 C74.3586578,19.4149351 74.4326263,19.5266579 74.4326263,19.6383806 C74.4326263,20.0294103 73.9210106,20.3335445 73.4093949,20.3335445 C72.860795,20.3335445 72.5710849,19.7811375 72.318359,19.3901078 L66.8878359,11.457791 Z" id="Path"></path>
                        </g>
                        <g id="Runtime" transform="translate(0.131234, 27.310011)" fill="#F5F5F5">
                            <path d="M8.30296787,4.10891529 C8.30296787,2.69376018 7.90230498,1.65722112 7.10714325,1.02412541 C6.31198152,0.391029703 5.26409396,0.0744818482 3.98813676,0.0744818482 L0.505451645,0.0744818482 C0.240397734,0.105515952 0.1109528,0.235859186 0.1109528,0.45930473 L0.1109528,15.0701606 C0.1109528,15.3370539 0.246561778,15.473604 0.511615689,15.473604 C0.776669601,15.473604 0.912278579,15.3370539 0.912278579,15.0701606 L0.912278579,8.16196919 L3.95731654,8.16196919 L7.28590054,14.6977514 L7.29206458,14.710165 L7.29822863,14.710165 C7.30439267,14.7163718 7.32904885,14.7474059 7.38452525,14.8591287 L7.47082187,15.0949879 C7.50164209,15.1384356 7.53862636,15.194297 7.58793872,15.2625721 C7.63725107,15.3370539 7.69272747,15.3867085 7.74203983,15.4177426 C7.79135218,15.4487767 7.85299263,15.4611903 7.90846903,15.4611903 C8.02558587,15.4611903 8.12421058,15.4239494 8.19817912,15.3494675 C8.27214765,15.2749857 8.30913192,15.1756766 8.30913192,15.057747 C8.30913192,14.9832651 8.28447574,14.9025765 8.24132743,14.815681 L4.82028276,8.11231463 C7.13179943,7.82680088 8.30296787,6.47992079 8.30296787,4.10891529 Z M7.50164209,4.10891529 C7.50164209,5.21372937 7.18727583,6.03923652 6.56470734,6.56681628 C5.94213885,7.09439604 5.07300858,7.36128933 3.98813676,7.36128933 L0.906114534,7.36128933 L0.906114534,0.881368537 L3.98813676,0.881368537 C5.07300858,0.881368537 5.94213885,1.14205501 6.56470734,1.66342794 C7.18727583,2.17859406 7.50164209,2.99789439 7.50164209,4.10891529 Z" id="Shape"></path>
                            <path d="M19.2626389,0.0744818482 C18.997585,0.0744818482 18.861976,0.204825082 18.861976,0.45930473 L18.861976,11.2467591 C18.861976,12.426055 18.5722659,13.3198372 18.0051738,13.9032783 C17.4380817,14.4929263 16.6120998,14.7846469 15.5518841,14.7846469 C14.4916685,14.7846469 13.6718506,14.4867195 13.1109225,13.9032783 C12.5499945,13.3136304 12.2602844,12.4198482 12.2602844,11.2467591 L12.2602844,0.45309791 C12.2602844,0.198618262 12.1246754,0.0682750275 11.8596215,0.0682750275 C11.5945676,0.0682750275 11.4589586,0.198618262 11.4589586,0.45309791 L11.4589586,11.2405523 C11.4589586,12.736396 11.8349653,13.8474169 12.5684866,14.5425809 C13.308172,15.2377448 14.3067472,15.5853267 15.5457201,15.5853267 C16.784693,15.5853267 17.7894323,15.2315379 18.5352817,14.5425809 C19.281131,13.8474169 19.6571377,12.736396 19.6571377,11.2405523 L19.6571377,0.45309791 C19.6633018,0.198618262 19.5276928,0.0744818482 19.2626389,0.0744818482 Z" id="Path"></path>
                            <path d="M31.621548,0.0744818482 C31.3564941,0.0744818482 31.2208851,0.204825082 31.2208851,0.45930473 L31.2208851,13.4688009 L24.8904115,0.844127612 C24.6068654,0.328961496 24.3849598,0.0744818482 24.2246947,0.0744818482 C23.9596408,0.0744818482 23.8240318,0.204825082 23.8240318,0.45930473 L23.8240318,15.0701606 C23.8240318,15.3370539 23.9596408,15.473604 24.2246947,15.473604 C24.4897486,15.473604 24.6253576,15.3370539 24.6253576,15.0701606 L24.6253576,2.04825082 L30.9989795,14.6977514 C31.2578694,15.2129175 31.4612829,15.4673971 31.6277121,15.4673971 C31.892766,15.4673971 32.028375,15.3308471 32.028375,15.0639538 L32.028375,0.45309791 C32.0222109,0.198618262 31.892766,0.0744818482 31.621548,0.0744818482 Z" id="Path"></path>
                            <path d="M43.3825448,0.0744818482 L35.2336781,0.0744818482 C35.1165612,0.0744818482 35.0179365,0.117929593 34.943968,0.198618262 C34.8699994,0.279306931 34.8330152,0.372409241 34.8330152,0.477925192 C34.8330152,0.583441144 34.8699994,0.676543454 34.943968,0.757232123 C35.0179365,0.837920792 35.1165612,0.881368537 35.2336781,0.881368537 L38.9197767,0.881368537 L38.9197767,15.0639538 C38.9197767,15.3308471 39.0553856,15.4673971 39.3204395,15.4673971 C39.5854935,15.4673971 39.7211024,15.3308471 39.7211024,15.0639538 L39.7211024,0.881368537 L43.3887089,0.881368537 C43.6537628,0.881368537 43.7893718,0.738611661 43.7893718,0.45930473 C43.7832077,0.198618262 43.6475987,0.0744818482 43.3825448,0.0744818482 Z" id="Path"></path>
                            <path d="M46.9885108,0.0744818482 C46.7234569,0.0744818482 46.5878479,0.204825082 46.5878479,0.45930473 L46.5878479,15.0701606 C46.5878479,15.3370539 46.7234569,15.473604 46.9885108,15.473604 C47.2535647,15.473604 47.3891737,15.3370539 47.3891737,15.0701606 L47.3891737,0.45309791 C47.3891737,0.198618262 47.2535647,0.0744818482 46.9885108,0.0744818482 Z" id="Path"></path>
                            <path d="M61.430867,0.0744818482 C61.2644378,0.0744818482 61.0486962,0.328961496 60.7651502,0.844127612 L56.721537,8.81989219 L52.696416,0.844127612 C52.41287,0.328961496 52.1909644,0.0744818482 52.0306992,0.0744818482 C51.7656453,0.0744818482 51.6300363,0.204825082 51.6300363,0.45930473 L51.6300363,15.0701606 C51.6300363,15.3370539 51.7656453,15.473604 52.0306992,15.473604 C52.2957531,15.473604 52.4313621,15.3370539 52.4313621,15.0701606 L52.4313621,2.04825082 L56.302382,9.59574477 C56.4318269,9.8750517 56.5674359,10.0116018 56.721537,10.0116018 C56.857146,10.0116018 56.992755,9.8750517 57.140692,9.60195159 L61.0302041,2.05445764 L61.0302041,15.0701606 C61.0302041,15.3370539 61.1658131,15.473604 61.430867,15.473604 C61.6959209,15.473604 61.8315299,15.3370539 61.8315299,15.0701606 L61.8315299,0.45309791 C61.8315299,0.198618262 61.6959209,0.0744818482 61.430867,0.0744818482 Z" id="Path"></path>
                            <path d="M73.9007289,14.6605104 L66.8798823,14.6605104 L66.8798823,8.16196919 L70.1899741,8.16196919 C70.4427,8.16196919 70.5721449,8.03162596 70.5721449,7.77714631 C70.5721449,7.49783938 70.4427,7.35508251 70.1899741,7.35508251 L66.8798823,7.35508251 L66.8798823,0.881368537 L73.9007289,0.881368537 C74.1534547,0.881368537 74.2828997,0.738611661 74.2828997,0.45930473 C74.2828997,0.211031903 74.1534547,0.0744818482 73.9007289,0.0744818482 L66.4792194,0.0744818482 C66.2141655,0.0744818482 66.0785565,0.211031903 66.0785565,0.477925192 L66.0785565,15.0639538 C66.0785565,15.3308471 66.2141655,15.4673971 66.4792194,15.4673971 L73.9007289,15.4673971 C74.1534547,15.4673971 74.2828997,15.3370539 74.2828997,15.0825743 C74.2767356,14.8032673 74.1472907,14.6605104 73.9007289,14.6605104 Z" id="Path"></path>
                        </g>
                    </g>
                    <g id="Group" transform="translate(0.000000, 0.787584)">
                        <g transform="translate(24.010067, 0.130973)" id="Path">
                            <polygon fill="#FFFFFF" points="11.7649329 11.8763284 0.203162106 24.9346904 0.203162106 0.192858135"></polygon>
                            <polyline fill="#D1D1D1" points="11.7649329 11.8763284 4.30949923 20.2127768 0.203162106 11.8763284"></polyline>
                            <path d="M0.203162106,0.192858135 L11.7587765,11.8763284 L0.203162106,11.8763284 C0.203162106,11.8763284 0.203162106,0.267512897 0.203162106,0.192858135 Z" fill="#B2B2B2"></path>
                        </g>
                        <g transform="translate(0.615643, 9.462818)" id="Path">
                            <polygon fill="#FFFFFF" points="14.6276717 0.447928571 23.3513294 15.5904028 0.0615642747 7.9445109"></polygon>
                            <polyline fill="#D1D1D1" points="14.6276717 0.447928571 20.1746128 10.1841538 11.0569437 11.5528244"></polyline>
                            <path d="M0.0615642747,7.9445109 L14.6276717,0.447928571 L11.0569437,11.5528244 C11.0569437,11.5528244 0.135441404,7.96939582 0.0615642747,7.9445109 Z" fill="#B2B2B2"></path>
                        </g>
                        <g transform="translate(6.772070, 25.015894)" id="Path">
                            <polygon fill="#FFFFFF" points="0.153910687 3.96914484 17.1025555 0.273734127 2.70882808 20.2874315"></polygon>
                            <polyline fill="#D1D1D1" points="0.153910687 3.96914484 11.032318 1.64862599 9.50552401 10.8373829"></polyline>
                            <path d="M2.70882808,20.2874315 L0.153910687,3.96914484 L9.50552401,10.8311617 C9.50552401,10.8373829 2.7580795,20.2252192 2.70882808,20.2874315 Z" fill="#B2B2B2"></path>
                        </g>
                        <g transform="translate(22.163139, 25.015894)" id="Path">
                            <polygon fill="#FFFFFF" points="0.153910687 17.8611518 1.90849251 0.42926488 16.2960635 20.4491835"></polygon>
                            <polyline fill="#D1D1D1" points="0.153910687 17.8611518 1.32978833 6.68782241 9.49936758 10.9929137"></polyline>
                            <path d="M16.2960635,20.4491835 L0.147754259,17.8611518 L9.49936758,10.9991318 C9.49936758,10.9929137 16.2529685,20.3869712 16.2960635,20.4491835 Z" fill="#B2B2B2"></path>
                        </g>
                        <g transform="translate(24.010067, 17.550418)" id="Path">
                            <polygon fill="#FFFFFF" points="16.12984 14.8314127 0.270882808 7.757874 23.5544915 0.111982143"></polygon>
                            <polyline fill="#D1D1D1" points="16.12984 14.8314127 5.97789107 10.2463661 12.559112 3.72029563"></polyline>
                            <path d="M23.5544915,0.111982143 L16.12984,14.8314127 L12.559112,3.72651686 C12.559112,3.72029563 23.4806144,0.136867063 23.5544915,0.111982143 Z" fill="#B2B2B2"></path>
                        </g>
                        <path d="M47.7061564,17.4197719 C47.6261229,17.3264534 47.5029943,17.289126 47.3860222,17.3264534 L47.3737093,17.3326746 L24.9273748,24.7048324 L35.9289107,12.2748145 C35.9289107,12.2748145 35.9289107,12.2748145 35.9289107,12.2685933 C35.9412235,12.2561508 35.9535364,12.2437084 35.9596928,12.2250447 C35.9596928,12.2250447 35.9596928,12.2188235 35.9658493,12.2188235 C35.9720057,12.206381 35.9781621,12.2001598 35.9843185,12.1877173 C35.9843185,12.1877173 35.9843185,12.1814961 35.9843185,12.1814961 C35.9843185,12.1752748 35.990475,12.1690536 35.990475,12.1628324 C35.9966314,12.1503899 35.9966314,12.1379475 35.9966314,12.1317262 C35.9966314,12.125505 35.9966314,12.1192838 35.9966314,12.1130625 C35.9966314,12.1006201 35.9966314,12.0881776 35.9966314,12.0757352 C35.9966314,12.0695139 35.9966314,12.0695139 35.9966314,12.0632927 C35.9966314,12.044629 35.9966314,12.0321865 35.990475,12.0135229 C35.990475,12.0073016 35.990475,12.0073016 35.9843185,12.0010804 C35.9781621,11.9886379 35.9781621,11.9761955 35.9720057,11.963753 C35.9720057,11.9575318 35.9658493,11.9513106 35.9658493,11.9450893 C35.9596928,11.9326469 35.9535364,11.9264256 35.94738,11.9139832 C35.94738,11.9077619 35.9412235,11.9015407 35.9412235,11.9015407 C35.9289107,11.8890983 35.9227543,11.8704346 35.9104414,11.8579921 L24.3548271,0.180743108 C24.2686371,0.0936458854 24.1393521,0.0687609648 24.0285364,0.112309576 C23.9177207,0.162079417 23.8438436,0.26784033 23.8438436,0.392264933 L23.8438436,0.404707393 L23.8438436,24.2569038 L15.5511358,9.84231353 C15.5511358,9.84231353 15.5511358,9.84231353 15.5511358,9.8360923 C15.5449793,9.82364984 15.5326665,9.80498615 15.5203536,9.79254369 C15.5203536,9.79254369 15.5141972,9.78632246 15.5141972,9.78632246 C15.5080408,9.78010123 15.4957279,9.76765877 15.4895715,9.76143754 C15.4895715,9.76143754 15.4834151,9.76143754 15.4834151,9.75521631 C15.4772586,9.74899508 15.4711022,9.74899508 15.4711022,9.74277385 C15.4587894,9.73655262 15.4526329,9.73033139 15.4403201,9.72411016 C15.4341637,9.72411016 15.4280072,9.71788893 15.4218508,9.71788893 C15.4095379,9.7116677 15.3972251,9.70544647 15.3849122,9.70544647 C15.3787558,9.70544647 15.3787558,9.70544647 15.3725994,9.69922524 C15.3541301,9.69300401 15.3418172,9.69300401 15.323348,9.68678278 C15.3171915,9.68678278 15.3171915,9.68678278 15.3110351,9.68678278 C15.2987223,9.68678278 15.2864094,9.68678278 15.2740965,9.68678278 C15.2679401,9.68678278 15.2617837,9.68678278 15.2556273,9.68678278 C15.2433144,9.68678278 15.2310015,9.69300401 15.2186887,9.69300401 C15.2125323,9.69300401 15.2063758,9.69300401 15.2002194,9.69922524 C15.1817501,9.70544647 15.1694373,9.7116677 15.150968,9.71788893 L0.591017037,17.2269137 C0.48635777,17.2829048 0.418637068,17.3948869 0.430949923,17.5193115 C0.443262777,17.6437361 0.523296335,17.7432758 0.634112029,17.7806032 L0.646424884,17.7868244 L23.0927594,25.1589822 L6.96291946,28.6801984 C6.96291946,28.6801984 6.96291946,28.6801984 6.95676304,28.6801984 C6.93829375,28.6864197 6.9259809,28.6864197 6.90751162,28.6988621 C6.90751162,28.6988621 6.90135519,28.6988621 6.90135519,28.7050834 C6.88904233,28.7113046 6.88288591,28.7175258 6.87057305,28.723747 C6.87057305,28.723747 6.86441662,28.7299683 6.86441662,28.7299683 C6.8582602,28.7361895 6.85210377,28.7361895 6.85210377,28.7424107 C6.84594734,28.748632 6.83363449,28.7548532 6.82747806,28.7672957 C6.82132163,28.7735169 6.82132163,28.7735169 6.8151652,28.7797381 C6.80900878,28.7859593 6.79669592,28.7984018 6.79053949,28.8108443 C6.79053949,28.8170655 6.78438307,28.8170655 6.78438307,28.8232867 C6.77207021,28.8357292 6.76591378,28.8543929 6.75975736,28.8668353 C6.75975736,28.8730566 6.75975736,28.8730566 6.75360093,28.8792778 C6.7474445,28.8917203 6.7474445,28.9041627 6.74128807,28.9166052 C6.74128807,28.9228264 6.74128807,28.9290476 6.73513165,28.9352689 C6.73513165,28.9477113 6.72897522,28.9601538 6.72897522,28.9725962 C6.72897522,28.9788175 6.72897522,28.9850387 6.72897522,28.9912599 C6.72897522,29.0099236 6.72897522,29.0285873 6.73513165,29.047251 L9.29004904,45.3655377 C9.30851833,45.4837411 9.39470831,45.5832808 9.51783686,45.6143869 C9.63480898,45.6454931 9.75793753,45.5957232 9.83181466,45.4961835 L9.83797109,45.4837411 L23.7022457,26.1606002 L22.0338539,42.7463998 C22.0338539,42.7463998 22.0338539,42.7463998 22.0338539,42.752621 C22.0338539,42.7712847 22.0338539,42.7899484 22.0338539,42.8086121 C22.0338539,42.8086121 22.0338539,42.8148333 22.0338539,42.8148333 C22.0338539,42.8272758 22.0338539,42.8397183 22.0400103,42.8521607 C22.0400103,42.8521607 22.0400103,42.8583819 22.0400103,42.8583819 C22.0400103,42.8646032 22.0461668,42.8708244 22.0461668,42.8770456 C22.0523232,42.8894881 22.0523232,42.8957093 22.0584796,42.9081518 C22.0584796,42.914373 22.064636,42.9205942 22.064636,42.9268155 C22.0707925,42.9392579 22.0769489,42.9517004 22.0831053,42.9579216 C22.0831053,42.9641429 22.0892617,42.9641429 22.0892617,42.9703641 C22.1015746,42.9828065 22.1138875,42.995249 22.1262003,43.0076915 C22.1262003,43.0076915 22.1323567,43.0139127 22.1323567,43.0139127 C22.1446696,43.0201339 22.150826,43.0325764 22.1631389,43.0387976 C22.1692953,43.0450189 22.1754517,43.0450189 22.1754517,43.0450189 C22.1877646,43.0512401 22.193921,43.0574613 22.2062339,43.0574613 C22.2123903,43.0574613 22.2185467,43.0636825 22.2247031,43.0636825 C22.2431724,43.0699038 22.2554853,43.076125 22.2739546,43.076125 L38.4222638,45.6641567 C38.5392359,45.6828204 38.6623645,45.6268294 38.7239288,45.5210685 C38.785493,45.4153075 38.7793366,45.2846617 38.7116159,45.185122 L38.7054595,45.1726796 L24.8350284,25.8806449 L39.9305885,32.6120159 C39.9305885,32.6120159 39.9305885,32.6120159 39.936745,32.6120159 C39.9552142,32.6182371 39.9675271,32.6244583 39.9859964,32.6306796 C39.9859964,32.6306796 39.9921528,32.6306796 39.9921528,32.6306796 C40.0044657,32.6306796 40.0167785,32.6369008 40.0290914,32.6369008 C40.0290914,32.6369008 40.0352478,32.6369008 40.0352478,32.6369008 C40.0414042,32.6369008 40.0475607,32.6369008 40.0537171,32.6369008 C40.0660299,32.6369008 40.0783428,32.6369008 40.0906557,32.6369008 C40.0968121,32.6369008 40.1029685,32.6369008 40.1091249,32.6369008 C40.1214378,32.6369008 40.1337506,32.6306796 40.1460635,32.6244583 C40.1522199,32.6244583 40.1522199,32.6244583 40.1583764,32.6182371 C40.1768456,32.6120159 40.1891585,32.6057947 40.2014713,32.5995734 C40.2076278,32.5995734 40.2076278,32.5933522 40.2137842,32.5933522 C40.2260971,32.587131 40.2384099,32.5809097 40.2445663,32.5684673 C40.2507228,32.562246 40.2507228,32.562246 40.2568792,32.5560248 C40.2630356,32.5498036 40.2753485,32.5373611 40.2815049,32.5311399 C40.2876613,32.5249187 40.2876613,32.5249187 40.2938178,32.5186974 C40.3061306,32.506255 40.312287,32.4875913 40.3245999,32.4751488 L47.7492514,17.7557183 C47.7985028,17.6437361 47.7800336,17.5130903 47.7061564,17.4197719 Z M28.3257228,19.883379 L24.6257099,12.3805754 L35.0300723,12.3805754 L28.3257228,19.883379 Z M34.6976252,11.4909395 L34.9808209,11.7771161 L24.441017,11.7771161 C24.441017,10.2529147 24.441017,3.39089787 24.441017,1.12637009 L34.6976252,11.4909395 Z M24.441017,13.3573086 L27.9193986,20.4184048 L24.441017,24.344001 L24.441017,13.3573086 Z M1.5021683,17.4322143 L14.430666,10.7754981 L14.7877388,10.5950824 L11.5248322,20.7232451 C10.096541,20.2504316 3.6322922,18.1352133 1.5021683,17.4322143 Z M15.366443,10.7381707 L20.3593056,19.503884 L12.1527878,20.7356875 L15.366443,10.7381707 Z M20.7348477,20.0513522 L23.3574858,24.6052927 L13.0146877,21.208501 L20.7348477,20.0513522 Z M9.76409396,44.5194504 L7.49852865,30.0364266 L7.43696438,29.6382679 L15.95746,35.9030466 C15.0709344,37.1348502 11.0815694,42.6904087 9.76409396,44.5194504 Z M7.74478575,29.128127 L17.5396618,27.0377937 L16.1667785,35.3058085 L7.74478575,29.128127 Z M16.8809241,34.6214732 L18.1737739,26.8449355 L23.2712958,25.7313353 L16.8809241,34.6214732 Z M37.8127775,44.9549365 L23.4806144,42.6593026 L23.086603,42.5970903 L31.613255,36.3385327 C32.4997806,37.5641151 36.4891456,43.1196736 37.8127775,44.9549365 Z M22.6987481,42.1367192 L23.7576536,32.0769901 L31.1145844,35.9528165 L22.6987481,42.1367192 Z M23.7761229,31.4050972 L24.3055756,26.1606002 L30.6959473,35.0507381 L23.7761229,31.4050972 Z M25.0258776,25.3082917 L35.3686758,21.9115 L29.7971089,27.4359524 L25.0258776,25.3082917 Z M30.4250645,27.6599167 L36.3475478,21.7870754 L39.5612029,31.7845923 L30.4250645,27.6599167 Z M40.2938178,31.1935754 L40.1152814,31.5544068 L36.8585312,21.4262441 C38.2929788,20.9534306 44.7510712,18.8319911 46.8873516,18.1352133 L40.2938178,31.1935754 Z" id="Shape" fill="#464646"></path>
                    </g>
                </g>
            </g>
        </g>
    </g>
</svg>